<svg xmlns="http://www.w3.org/2000/svg" width="27" height="28.57" viewBox="0 0 27 28.57"><defs><style>.a{fill:#2c77ff;}</style></defs><g transform="translate(-0.539 0)"><g transform="translate(0.539 0)"><path class="a" d="M4.4,28.063c5.019.5,9.092.508,9.132.508h1.02c.04,0,4.117-.006,9.132-.508a4.048,4.048,0,0,0,3.151-1.638,5.751,5.751,0,0,0,.493-4.342C25.773,16.872,24.731,5.557,24.354.934A1.012,1.012,0,0,0,23.337,0H22.193l0,.079c-.212,7.658-4.376,11.146-8.151,11.146S6.105,7.741,5.888.094V0H4.741A1.012,1.012,0,0,0,3.724.935C3.348,5.557,2.3,16.872.753,22.083a5.751,5.751,0,0,0,.493,4.342A4.048,4.048,0,0,0,4.4,28.063Zm19.081-2.031c1.243-.124,1.557-.591,1.659-.744a3.775,3.775,0,0,0,.232-2.622.51.51,0,0,1,.978-.292,4.745,4.745,0,0,1-.362,3.483,2.889,2.889,0,0,1-2.405,1.191.432.432,0,0,1-.051,0,.511.511,0,0,1-.051-1.02ZM1.731,22.374a.51.51,0,0,1,.978.292,3.776,3.776,0,0,0,.231,2.622c.1.153.417.62,1.66.744a.511.511,0,1,1-.051,1.02.432.432,0,0,1-.051,0,2.894,2.894,0,0,1-2.405-1.19,4.756,4.756,0,0,1-.361-3.486Z" transform="translate(-0.539 0)"/><path class="a" d="M21.111,15.282c2.315,0,4.793-1.571,6.134-4.915a8.549,8.549,0,0,1-12.268,0C16.319,13.71,18.8,15.282,21.111,15.282Z" transform="translate(-7.611 -5.078)"/></g></g></svg>