<svg xmlns="http://www.w3.org/2000/svg" width="25.817" height="36.735" viewBox="0 0 25.817 36.735"><defs><style>.a{fill:#263270;}</style></defs><g transform="translate(-76.082)"><path class="a" d="M100.823,13.716H98.671a3.232,3.232,0,0,0-3.229,3.229v1.707l-5.369,5.369V14.8l4.016-4.016h1.58A3.232,3.232,0,0,0,98.9,7.551V5.4a1.076,1.076,0,0,0-1.076-1.076H95.669a3.232,3.232,0,0,0-3.229,3.229V9.384l-2.368,2.368V1.076a1.076,1.076,0,1,0-2.152,0V4.964L85.432,2.476A1.076,1.076,0,0,0,83.91,4l4.011,4.011V18.292l-5.381-5.381V11.2a3.232,3.232,0,0,0-3.229-3.229H77.158a1.076,1.076,0,0,0-1.076,1.076V11.2a3.232,3.232,0,0,0,3.229,3.229h1.707l1.092,1.092a3.233,3.233,0,0,0-2.811,3.2v2.152a1.076,1.076,0,0,0,1.076,1.076h2.152a3.233,3.233,0,0,0,3.2-2.811l2.193,2.193v8.942h-4.3a3.232,3.232,0,0,0-3.229,3.229v2.152a1.076,1.076,0,0,0,1.076,1.076H96.53a1.076,1.076,0,0,0,1.076-1.076V33.507a3.232,3.232,0,0,0-3.229-3.229h-4.3V27.065l2.181-2.181a3.233,3.233,0,0,0,3.2,2.811h2.152a1.076,1.076,0,0,0,1.076-1.076V24.466a3.233,3.233,0,0,0-2.811-3.2l1.092-1.092h1.707a3.232,3.232,0,0,0,3.229-3.229V14.792a1.076,1.076,0,0,0-1.076-1.076Z"/></g></svg>