<svg xmlns="http://www.w3.org/2000/svg" width="36" height="38.127" viewBox="0 0 36 38.127"><defs><style>.a{fill:#263270;}</style></defs><g transform="translate(-14.265 0)"><path class="a" d="M49.015,332.829s-1.069,5.08,1.405,7.554,7.554,1.405,7.554,1.405,1.069-5.08-1.405-7.554S49.015,332.829,49.015,332.829Z" transform="translate(-31.947 -307.812)"/><path class="a" d="M23.455,149.909s1.069-5.08-1.405-7.554-7.554-1.405-7.554-1.405-1.069,5.08,1.405,7.554S23.455,149.909,23.455,149.909Z" transform="translate(0 -130.232)"/><path class="a" d="M199.8,179.541c0-3.5-4.348-6.335-4.348-6.335s-4.348,2.836-4.348,6.335,4.348,6.335,4.348,6.335S199.8,183.04,199.8,179.541Z" transform="translate(-163.662 -160.297)"/><path class="a" d="M333.633,70.99c3.5,0,6.335-4.348,6.335-4.348s-2.836-4.348-6.335-4.348-6.335,4.348-6.335,4.348S330.134,70.99,333.633,70.99Z" transform="translate(-289.703 -57.651)"/><path class="a" d="M171.46,7.784c2.474-2.474,1.405-7.554,1.405-7.554s-5.08-1.069-7.554,1.405-1.405,7.554-1.405,7.554S168.986,10.258,171.46,7.784Z" transform="translate(-138.276 0)"/><path class="a" d="M241.965,394.894c-3.5,0-6.335,4.348-6.335,4.348s2.836,4.348,6.335,4.348,6.335-4.348,6.335-4.348S245.464,394.894,241.965,394.894Z" transform="translate(-204.867 -365.464)"/><path class="a" d="M366.6,224.41c-2.474,2.474-1.405,7.554-1.405,7.554s5.08,1.069,7.554-1.405S374.154,223,374.154,223,369.073,221.936,366.6,224.41Z" transform="translate(-324.562 -206.172)"/></g></svg>