<svg xmlns="http://www.w3.org/2000/svg" width="38" height="26.207" viewBox="0 0 38 26.207"><defs><style>.a{fill:#2c77ff;}</style></defs><g transform="translate(0)"><path class="a" d="M60.033,48a1.96,1.96,0,0,0-1.39.576L47.585,59.634l-4.507-4.507a1.965,1.965,0,0,0-2.78,0L27.93,67.5V63.069a1.966,1.966,0,1,0-3.931,0v9.172a1.966,1.966,0,0,0,1.966,1.966h9.172a1.966,1.966,0,0,0,0-3.931H30.709L41.688,59.3,46.195,63.8a1.965,1.965,0,0,0,2.78,0L61.423,51.355A1.966,1.966,0,0,0,60.033,48Z" transform="translate(-23.998 -48)"/></g></svg>