<svg xmlns="http://www.w3.org/2000/svg" width="59" height="59" viewBox="0 0 59 59"><defs><style>.a{fill:#242f68;}.b{fill:#fff;}</style></defs><g transform="translate(-1390 -306)"><rect class="a" width="59" height="59" rx="13" transform="translate(1390 306)"/><g transform="translate(1409.999 312.293)"><g transform="translate(0.001 13.707)"><path class="b" d="M18.2,15.583a6.425,6.425,0,0,0-9.076,0L1.341,23.362a4.584,4.584,0,0,0,6.483,6.483l7.131-7.131a2.75,2.75,0,1,0-3.889-3.889L6.4,23.488a.917.917,0,1,0,1.3,1.3l4.663-4.663a.917.917,0,1,1,1.3,1.3L6.527,28.548a2.75,2.75,0,0,1-3.89-3.89l7.779-7.779A4.584,4.584,0,1,1,16.9,23.362L9.12,31.142a.917.917,0,0,0,1.3,1.3L18.2,24.659a6.417,6.417,0,0,0,0-9.076Z" transform="translate(-0.001 -13.707)"/></g></g></g></svg>