<svg xmlns="http://www.w3.org/2000/svg" width="31.953" height="31.953" viewBox="0 0 31.953 31.953">
  <g id="Group_3503" data-name="Group 3503" transform="translate(-247 -426)">
    <path id="Path_6786" data-name="Path 6786" d="M14.645,14a1,1,0,0,0-1-1H8.654v3.994a1.331,1.331,0,1,1-2.663,0V13H1a1,1,0,0,0-1,1V26.647a1,1,0,0,0,1,1H13.647a1,1,0,0,0,1-1Z" transform="translate(247 430.308)" fill="#fff"/>
    <path id="Path_6787" data-name="Path 6787" d="M27.645,14a1,1,0,0,0-1-1H21.654v3.994a1.331,1.331,0,1,1-2.663,0V13H14a1,1,0,0,0-1,1V26.647a1,1,0,0,0,1,1H26.647a1,1,0,0,0,1-1Z" transform="translate(251.308 430.308)" fill="#fff"/>
    <path id="Path_6788" data-name="Path 6788" d="M21.145,1a1,1,0,0,0-1-1H15.154V3.994a1.331,1.331,0,1,1-2.663,0V0H7.5a1,1,0,0,0-1,1V13.647a1,1,0,0,0,1,1H20.147a1,1,0,0,0,1-1Z" transform="translate(249.154 426)" fill="#fff"/>
  </g>
</svg>
