<svg xmlns="http://www.w3.org/2000/svg" width="24" height="38.181" viewBox="0 0 24 38.181"><defs><style>.a{fill:#2c77ff;}</style></defs><g transform="translate(-95.083)"><path class="a" d="M107.083,0c1.324,1.78,3.778,5.675,3.778,10.1s-2.454,8.322-3.778,10.1c-1.324-1.78-3.778-5.675-3.778-10.1S105.759,1.779,107.083,0Zm-12,9.986a14.778,14.778,0,0,1,6.168,2.445,20.62,20.62,0,0,0,3.255,8.011A12.883,12.883,0,0,1,98.5,17.292,13.744,13.744,0,0,1,95.083,9.986Zm19.395,28.2H99.688L97.6,30.133h18.959ZM118.7,27.9H95.468V23.1H118.7Zm-9.039-7.455a20.62,20.62,0,0,0,3.255-8.011,14.779,14.779,0,0,1,6.168-2.445,13.744,13.744,0,0,1-3.417,7.306A12.884,12.884,0,0,1,109.659,20.441Z"/></g></svg>