<svg xmlns="http://www.w3.org/2000/svg" width="32" height="32" viewBox="0 0 32 32"><defs><style>.a{fill:#2c77ff;}</style></defs><g transform="translate(0 -0.001)"><path class="a" d="M19.314,15.338a6.553,6.553,0,0,0,8.551.6l.73.73a.937.937,0,0,0,1.326-1.326l-2.652-2.652a6.535,6.535,0,0,0-4.718-1.911l2.106-2.106a6.429,6.429,0,0,0,4.25-1.6,6.429,6.429,0,0,0,1.6-4.25L31.725,1.6A.937.937,0,1,0,30.4.276L29.181,1.494a6.429,6.429,0,0,0-4.25,1.6,6.429,6.429,0,0,0-1.6,4.25L21.226,9.449a6.536,6.536,0,0,0-1.911-4.718L16.663,2.08a.937.937,0,0,0-1.326,1.326l.73.73a6.553,6.553,0,0,0,.6,8.551l.663.663L14.6,16.078a6.536,6.536,0,0,0-1.911-4.718L10.034,8.709a.937.937,0,0,0-1.326,1.326l.73.73a6.553,6.553,0,0,0,.6,8.551l.663.663L7.968,22.707A6.536,6.536,0,0,0,6.056,17.99L3.4,15.338a.937.937,0,1,0-1.326,1.326l.73.73a6.553,6.553,0,0,0,.6,8.551l.663.663L.275,30.4A.937.937,0,0,0,1.6,31.726l3.793-3.793.663.663a6.553,6.553,0,0,0,8.551.6l.73.73A.937.937,0,1,0,16.663,28.6l-2.652-2.652a6.535,6.535,0,0,0-4.718-1.911L12.022,21.3l.663.663a6.553,6.553,0,0,0,8.551.6l.73.73a.937.937,0,1,0,1.326-1.326L20.64,19.316A6.535,6.535,0,0,0,15.923,17.4l2.729-2.729Z" transform="translate(0 0)"/></g></svg>