<svg xmlns="http://www.w3.org/2000/svg" width="38" height="26.207" viewBox="0 0 38 26.207"><defs><style>.a{fill:#263270;}</style></defs><g transform="translate(-23.998 -48)"><path class="a" d="M25.964,74.207a1.96,1.96,0,0,0,1.39-.576L38.412,62.573l4.507,4.507a1.965,1.965,0,0,0,2.78,0L58.066,54.711v4.426a1.965,1.965,0,1,0,3.931,0V49.965A1.965,1.965,0,0,0,60.033,48H50.86a1.965,1.965,0,0,0,0,3.931h4.427L44.309,62.91,39.8,58.4a1.965,1.965,0,0,0-2.78,0L24.574,70.851a1.965,1.965,0,0,0,1.39,3.355Z"/></g></svg>